<svg width="264" height="264" viewBox="0 0 264 264" fill="none" xmlns="http://www.w3.org/2000/svg">
<path d="M264 132C264 204.902 204.902 264 132 264C128.839 264 125.705 263.889 122.6 263.67C97.9069 261.933 75.0881 253.404 56 239.939C22.1253 216.044 0 176.606 0 132C0 59.0984 59.0984 0 132 0C204.902 0 264 59.0984 264 132Z" fill="#FF5722"/>
<path fill-rule="evenodd" clip-rule="evenodd" d="M122.6 263.67V220H171.6C174.8 220 177.467 218.867 179.6 216.6L219.6 176.6C221.867 174.467 223 171.8 223 168.6V99.6C223 96.5333 221.867 93.8667 219.6 91.6L179.6 51.6C177.467 49.4667 174.8 48.4 171.6 48.4H61C57.6667 48.4 56 50.0667 56 53.4V239.939C75.0881 253.404 97.9069 261.933 122.6 263.67ZM160.2 159C156.2 163.4 148.667 165.6 137.6 165.6C126.667 165.6 119.133 163.4 115 159C111 154.6 109 146.267 109 134C109 121.733 111 113.4 115 109C119.133 104.6 126.667 102.4 137.6 102.4C148.667 102.4 156.2 104.6 160.2 109C164.333 113.4 166.4 121.733 166.4 134C166.4 146.267 164.333 154.6 160.2 159Z" fill="white"/>
</svg>
